<?xml version="1.0" encoding="UTF-8"?>
<svg version="1.1" xmlns="http://www.w3.org/2000/svg" width="500" height="500">
<path d="M0 0 C165 0 330 0 500 0 C500 165 500 330 500 500 C335 500 170 500 0 500 C0 335 0 170 0 0 Z " fill="#FEFEFE" transform="translate(0,0)"/>
<path d="M0 0 C24.09 0 48.18 0 73 0 C73 0.99 73 1.98 73 3 C71.87980469 3.12117187 70.75960937 3.24234375 69.60546875 3.3671875 C68.13276364 3.53603267 66.66010996 3.70532697 65.1875 3.875 C64.44951172 3.95363281 63.71152344 4.03226563 62.95117188 4.11328125 C59.28493819 4.54460286 57.12048255 4.9196783 54 7 C54.36076892 14.77402059 56.67564946 20.33864833 60.1796875 27.2265625 C60.70708527 28.29127777 61.23448303 29.35599304 61.77786255 30.45297241 C63.46399648 33.85026114 65.16880146 37.23775098 66.875 40.625 C67.9830811 42.84570086 69.08986312 45.06705042 70.1953125 47.2890625 C71.84457358 50.60412259 73.49454916 53.91878939 75.14942932 57.23104858 C80.15271334 67.25672888 84.98751871 77.3588075 89.79785156 87.47808838 C91.54400965 91.14124364 93.31004575 94.79459438 95.08203125 98.4453125 C95.39152206 99.08295532 95.70101288 99.72059814 96.0198822 100.37756348 C96.63641271 101.64705156 97.25314651 102.91644093 97.87008667 104.18572998 C99.54803269 107.63855722 101.22291613 111.09287071 102.8984375 114.546875 C103.58168816 115.95508665 104.26495636 117.36328979 104.94824219 118.77148438 C105.28641968 119.46846436 105.62459717 120.16544434 105.97302246 120.88354492 C106.66021607 122.29975351 107.34747239 123.71593168 108.03479004 125.13208008 C110.02780085 129.23873317 112.01905202 133.34623001 114.00765991 137.45501709 C114.62321826 138.72605447 115.23944018 139.99677072 115.85635376 141.26715088 C116.7067092 143.0184258 117.55458888 144.77090222 118.40234375 146.5234375 C118.88179443 147.51263184 119.36124512 148.50182617 119.85522461 149.52099609 C121 152 121 152 122 155 C122.23200104 154.33491928 122.46400208 153.66983856 122.70303345 152.98460388 C125.67437188 144.46797604 128.64878775 135.95242559 131.625 127.4375 C131.86346901 126.75515667 132.10193802 126.07281334 132.34763336 125.36979294 C138.45094621 107.90769244 144.58980054 90.4601741 150.875 73.0625 C154.88665859 61.95650846 158.81568715 50.83569484 162.46875 39.60546875 C163.573324 36.229651 164.75245225 32.88796884 165.96875 29.55078125 C166.2975415 28.64223389 166.62633301 27.73368652 166.96508789 26.79760742 C167.59022773 25.0794538 168.22412519 23.36444775 168.86889648 21.65356445 C170.56991106 16.96190607 171.50772578 13.07074849 171 8 C166.97583416 3.97583416 160.41785104 3.80651022 155 3 C155 2.01 155 1.02 155 0 C169.19 0 183.38 0 198 0 C198 0.99 198 1.98 198 3 C197.19175781 3.10957031 196.38351562 3.21914062 195.55078125 3.33203125 C193.94783203 3.56986328 193.94783203 3.56986328 192.3125 3.8125 C191.25675781 3.96332031 190.20101562 4.11414063 189.11328125 4.26953125 C183.05266427 5.69153297 179.52177084 8.97880556 176 14 C174.619971 17.1073 174.619971 17.1073 173.671875 20.5078125 C173.2557163 21.84614537 172.83693391 23.18366424 172.41601562 24.52050781 C172.07969116 25.60096375 172.07969116 25.60096375 171.73657227 26.70324707 C170.38528 30.9167976 168.88020687 35.07595627 167.390625 39.2421875 C166.72005317 41.12725009 166.04956394 43.01234206 165.37915039 44.89746094 C164.85927048 46.3567804 164.85927048 46.3567804 164.32888794 47.84558105 C157.82147544 66.11780192 151.40245185 84.41903747 145.0625 102.75 C140.31102888 116.48502069 135.54974985 130.21373336 130.61914062 143.88574219 C128.23773316 150.49690511 125.91045915 157.12485151 123.61328125 163.765625 C122.7227561 166.3315263 121.83179696 168.89727662 120.9407959 171.4630127 C120.36064664 173.13879337 119.78304132 174.81545716 119.20812988 176.49304199 C118.40680973 178.83094086 117.59682159 181.16567628 116.78515625 183.5 C116.54807449 184.19965881 116.31099274 184.89931763 116.06672668 185.62017822 C114.81202366 189.20124691 113.49377729 192.12005687 111 195 C108 194 108 194 106.77661133 192.02905273 C106.3823999 191.17255127 105.98818848 190.3160498 105.58203125 189.43359375 C104.90624023 187.99016602 104.90624023 187.99016602 104.21679688 186.51757812 C103.75337891 185.50115234 103.28996094 184.48472656 102.8125 183.4375 C101.9041225 181.47703942 100.99392204 179.51742262 100.08203125 177.55859375 C99.59387939 176.50905518 99.10572754 175.4595166 98.6027832 174.37817383 C96.5545779 170.06118727 94.4151262 165.79376339 92.26846313 161.52514648 C87.66678939 152.3659982 83.18241989 143.14937073 78.6875 133.9375 C78.22234985 132.98480225 77.75719971 132.03210449 77.2779541 131.05053711 C71.82118532 119.87271293 66.38122142 108.68831619 61.03979492 97.45483398 C56.90989248 88.77887512 52.70351932 80.1404472 48.5 71.5 C43.62154704 61.46989751 38.75055891 51.43670828 33.9375 41.375 C33.50211914 40.46806396 33.06673828 39.56112793 32.61816406 38.62670898 C30.63045176 34.47334339 28.67851915 30.30980282 26.80078125 26.10546875 C22.2237297 14.65378272 22.2237297 14.65378272 14 6 C9.38114994 4.52643948 4.80091516 3.6392342 0 3 C0 2.01 0 1.02 0 0 Z " fill="#020202" transform="translate(110,125)"/>
<path d="M0 0 C17.49 0 34.98 0 53 0 C53 1.65 53 3.3 53 5 C52.1840184 5.7966507 51.3680368 6.59330139 50.52732849 7.41409302 C47.75307305 9.77008964 47.75307305 9.77008964 47.45497131 12.99630737 C47.49053635 14.11111481 47.52610138 15.22592224 47.56274414 16.37451172 C47.60022263 18.28913208 47.60022263 18.28913208 47.63845825 20.24243164 C47.67494162 21.26314255 47.67494162 21.26314255 47.71216202 22.30447388 C47.81238467 25.22243784 47.84646717 28.1401395 47.88490295 31.05946732 C47.91630055 33.39829693 47.95559087 35.73691709 47.99508667 38.07562256 C48.44111837 67.33252441 46.6407346 92.46366806 33 119 C32.34 119 31.68 119 31 119 C17.25935684 97.5988921 16.24193055 78.7417021 16.81866455 53.87438965 C16.96844244 46.73081181 16.98905399 39.58515175 17.03061295 32.4403019 C17.05418959 29.97013549 17.10364892 27.50166637 17.15890503 25.0320282 C17.1815137 23.52290162 17.20391485 22.01377191 17.22607422 20.50463867 C17.26823563 18.5416407 17.26823563 18.5416407 17.31124878 16.53898621 C16.89009736 11.75037602 15.56333128 8.33342962 11.875 5.1875 C7.97323119 3.57589984 4.18725725 3.26455438 0 3 C0 2.01 0 1.02 0 0 Z " fill="#020202" transform="translate(198,125)"/>
<path d="M0 0 C5 2 5 2 7.31640625 3.05078125 C10.28330831 4.10020949 12.6090576 4.30003594 15.75 4.3125 C16.71421875 4.32925781 17.6784375 4.34601563 18.671875 4.36328125 C23.03434084 3.8870966 26.89847868 2.51316595 31 1 C38.23391618 11.10726811 45.28677036 21.33008572 52.25 31.625 C58.38571665 40.68803725 64.53141105 49.74351354 70.75 58.75 C71.69601074 60.13179443 71.69601074 60.13179443 72.66113281 61.54150391 C79.74163247 71.7564615 86.19953861 80.93292705 99 83.3125 C100.66419671 83.55896391 102.33026816 83.79435288 104 84 C104 84.99 104 85.98 104 87 C98.73473145 87.07457346 93.46977545 87.12880098 88.20410156 87.16479492 C86.41563557 87.17981184 84.62720597 87.20023158 82.83886719 87.22631836 C80.25706969 87.26301615 77.67576221 87.27979745 75.09375 87.29296875 C73.90888 87.31619453 73.90888 87.31619453 72.70007324 87.33988953 C63.58316989 87.34260706 56.78118992 83.94450052 50 78 C43.66426358 71.52606427 38.32577319 64.54552619 33.25 57.0625 C32.56462158 56.06468506 31.87924316 55.06687012 31.1730957 54.03881836 C29.10870581 51.03039294 27.05386197 48.01561895 25 45 C23.82230624 43.280776 22.6439612 41.56199788 21.46484375 39.84375 C19.32431816 36.72263441 17.18755681 33.59900864 15.0546875 30.47265625 C11.52515129 25.30044992 7.97611892 20.1417193 4.42456055 14.98461914 C-1.00920148 7.09048118 -1.00920148 7.09048118 -0.625 3.3125 C-0.41875 2.219375 -0.2125 1.12625 0 0 Z " fill="#030303" transform="translate(268,230)"/>
<path d="M0 0 C14.19 0 28.38 0 43 0 C43 0.99 43 1.98 43 3 C42.19175781 3.10957031 41.38351562 3.21914062 40.55078125 3.33203125 C38.94783203 3.56986328 38.94783203 3.56986328 37.3125 3.8125 C36.25675781 3.96332031 35.20101562 4.11414063 34.11328125 4.26953125 C28.05266427 5.69153297 24.52177084 8.97880556 21 14 C19.619971 17.1073 19.619971 17.1073 18.671875 20.5078125 C18.2557163 21.84614537 17.83693391 23.18366424 17.41601562 24.52050781 C17.19179932 25.24081177 16.96758301 25.96111572 16.73657227 26.70324707 C15.38527999 30.91679766 13.88020537 35.07595568 12.390625 39.2421875 C11.71997248 41.12749447 11.04940185 43.01283057 10.37890625 44.89819336 C9.85901123 46.35755814 9.85901123 46.35755814 9.32861328 47.84640503 C2.79908565 66.18040377 -3.63994498 84.54406044 -10 102.9375 C-15.55471547 119.00018738 -21.15817015 135.03898909 -27 151 C-27.66 151 -28.32 151 -29 151 C-29.495 151.99 -29.495 151.99 -30 153 C-31.06647321 149.77798991 -30.94154959 147.99460233 -29.79101562 144.82202148 C-29.49840851 143.99841125 -29.20580139 143.17480103 -28.90432739 142.32623291 C-28.57496185 141.43353699 -28.24559631 140.54084106 -27.90625 139.62109375 C-27.56842499 138.67868835 -27.23059998 137.73628296 -26.88253784 136.76531982 C-25.76456548 133.65251912 -24.63206665 130.54519943 -23.5 127.4375 C-22.71569717 125.25932461 -21.93267218 123.08068871 -21.15087891 120.90161133 C-19.94884659 117.55157542 -18.74608268 114.20182469 -17.53945923 110.85343933 C-13.43277585 99.45550585 -9.44056554 88.01895618 -5.46774292 76.57382202 C-4.55832595 73.95402219 -3.64846638 71.3343768 -2.73828125 68.71484375 C-2.43818649 67.85086472 -2.13809174 66.98688568 -1.8289032 66.09672546 C0.15314522 60.40161053 2.16287671 54.71685043 4.18841553 49.0370636 C5.60354262 45.06681042 7.0107337 41.0937645 8.41741943 37.12051392 C9.09059846 35.22618338 9.76764413 33.3332219 10.4487915 31.44174194 C11.3911624 28.82395059 12.31996583 26.20169869 13.24609375 23.578125 C13.5265303 22.81033218 13.80696686 22.04253937 14.09590149 21.2514801 C15.68147191 16.70952136 16.45268266 12.88076325 16 8 C11.97583416 3.97583416 5.41785104 3.80651022 0 3 C0 2.01 0 1.02 0 0 Z " fill="#151515" transform="translate(265,125)"/>
<path d="M0 0 C11.88 0 23.76 0 36 0 C36 0.99 36 1.98 36 3 C35.03320312 3.08636719 34.06640625 3.17273438 33.0703125 3.26171875 C15.66682868 5.13991651 7.05050844 12.78105368 -4.22265625 25.9375 C-6.2797624 28.32464736 -8.38684772 30.66234756 -10.5 33 C-13.17048344 35.95869751 -15.82298058 38.92926472 -18.4375 41.9375 C-21.26712212 45.18827518 -24.15695696 48.37941255 -27.0625 51.5625 C-30.78782178 55.64613518 -34.43387881 59.77696174 -38 64 C-38.495 62.515 -38.495 62.515 -39 61 C-36.45969085 56.53746179 -33.19677089 52.83897836 -29.6875 49.125 C-28.70112534 48.06575333 -27.71544697 47.00585783 -26.73046875 45.9453125 C-26.25786621 45.43774414 -25.78526367 44.93017578 -25.29833984 44.40722656 C-23.66321713 42.63497246 -22.07643504 40.82454225 -20.5 39 C-18.07002537 36.1921585 -15.57764718 33.45111204 -13.05224609 30.72875977 C-8.90360725 26.24871238 -4.81991913 21.72353502 -0.875 17.0625 C-0.15054688 16.20785156 0.57390625 15.35320312 1.3203125 14.47265625 C3.06997662 11.89698791 3.63808015 10.06535142 4 7 C2.68 6.34 1.36 5.68 0 5 C0 3.35 0 1.7 0 0 Z " fill="#080808" transform="translate(322,125)"/>
<path d="M0 0 C14.19 0 28.38 0 43 0 C43 0.99 43 1.98 43 3 C42.19175781 3.10957031 41.38351562 3.21914062 40.55078125 3.33203125 C38.94783203 3.56986328 38.94783203 3.56986328 37.3125 3.8125 C36.25675781 3.96332031 35.20101562 4.11414063 34.11328125 4.26953125 C27.96160324 5.71289861 24.66137165 8.95324448 21 14 C19.67649342 17.21265916 19.67649342 17.21265916 19 20 C18.01 19.34 17.02 18.68 16 18 C15.8828125 15.72265625 15.8828125 15.72265625 16.125 13.0625 C16.35334549 9.117446 16.35334549 9.117446 14.1875 6 C9.53194498 4.53943372 4.82068974 3.71761581 0 3 C0 2.01 0 1.02 0 0 Z " fill="#070707" transform="translate(265,125)"/>
<path d="M0 0 C0.33 0 0.66 0 1 0 C1.01417969 0.66386719 1.02835938 1.32773437 1.04296875 2.01171875 C1.27425274 6.2935981 1.56854969 9.28587534 3.8125 13 C8.55707672 15.97698931 13.4968852 16.41194786 19 17 C19 18.32 19 19.64 19 21 C10.75 21 2.5 21 -6 21 C-4.875 14.25 -4.875 14.25 -3.80859375 11.1328125 C-3.58623047 10.47539062 -3.36386719 9.81796875 -3.13476562 9.140625 C-2.90466797 8.47546875 -2.67457031 7.8103125 -2.4375 7.125 C-2.20353516 6.43664062 -1.96957031 5.74828125 -1.72851562 5.0390625 C-1.15647501 3.35796355 -0.57881544 1.67877837 0 0 Z " fill="#1C1C1C" transform="translate(244,297)"/>
<path d="M0 0 C0 3.59923873 -0.57477968 3.99618927 -2.9375 6.5625 C-3.57558594 7.26503906 -4.21367187 7.96757812 -4.87109375 8.69140625 C-5.92490234 9.83416016 -5.92490234 9.83416016 -7 11 C-8.50160313 12.66522245 -10.00156267 14.33192826 -11.5 16 C-12.26441406 16.84691406 -13.02882813 17.69382813 -13.81640625 18.56640625 C-15.70848685 20.67511146 -17.57905758 22.79919801 -19.4375 24.9375 C-22.26712212 28.18827518 -25.15695696 31.37941255 -28.0625 34.5625 C-31.78782178 38.64613518 -35.43387881 42.77696174 -39 47 C-39.495 45.515 -39.495 45.515 -40 44 C-37.45969085 39.53746179 -34.19677089 35.83897836 -30.6875 32.125 C-29.70112534 31.06575333 -28.71544697 30.00585783 -27.73046875 28.9453125 C-27.25786621 28.43774414 -26.78526367 27.93017578 -26.29833984 27.40722656 C-24.66321713 25.63497246 -23.07643504 23.82454225 -21.5 22 C-18.47295478 18.51008136 -15.37057094 15.09361338 -12.25 11.6875 C-11.77755859 11.17123047 -11.30511719 10.65496094 -10.81835938 10.12304688 C-7.38213815 6.38203922 -4.11636918 2.98081906 0 0 Z " fill="#171717" transform="translate(323,142)"/>
<path d="M0 0 C0.66 0 1.32 0 2 0 C2.99 2.97 3.98 5.94 5 9 C6.32 6.03 7.64 3.06 9 0 C11.40921705 2.40921705 12.53812156 4.94334509 14 8 C14.66 5.36 15.32 2.72 16 0 C16.66 0 17.32 0 18 0 C17.71767279 2.10544013 17.4238102 4.20933589 17.125 6.3125 C16.96257812 7.48425781 16.80015625 8.65601563 16.6328125 9.86328125 C16 13 16 13 14 16 C12.35 12.7 10.7 9.4 9 6 C7.68 9.3 6.36 12.6 5 16 C4.34 16 3.68 16 3 16 C2.01 10.72 1.02 5.44 0 0 Z " fill="#323232" transform="translate(315,370)"/>
<path d="M0 0 C2.44786227 2.44786227 3.30080644 4.74317342 4.625 7.9375 C5.07101562 8.99839844 5.51703125 10.05929687 5.9765625 11.15234375 C7 14 7 14 7 17 C6.34 17 5.68 17 5 17 C4.67 16.01 4.34 15.02 4 14 C1.69 14 -0.62 14 -3 14 C-3.33 14.99 -3.66 15.98 -4 17 C-4.66 17 -5.32 17 -6 17 C-5.34496718 12.94180817 -4.05440879 9.46028718 -2.4375 5.6875 C-1.75494141 4.08455078 -1.75494141 4.08455078 -1.05859375 2.44921875 C-0.53458984 1.23685547 -0.53458984 1.23685547 0 0 Z " fill="#3C3C3C" transform="translate(347,369)"/>
<path d="M0 0 C2.35082212 2.89642841 3.83519406 5.65356331 5.1875 9.125 C5.53167969 9.99382812 5.87585938 10.86265625 6.23046875 11.7578125 C7 14 7 14 7 16 C6.34 16 5.68 16 5 16 C4.67 15.01 4.34 14.02 4 13 C1.36 12.67 -1.28 12.34 -4 12 C-4.33 13.32 -4.66 14.64 -5 16 C-5.66 15.67 -6.32 15.34 -7 15 C-6.02373969 12.68623321 -5.04414868 10.37397937 -4.0625 8.0625 C-3.78470703 7.40314453 -3.50691406 6.74378906 -3.22070312 6.06445312 C-1.11328125 1.11328125 -1.11328125 1.11328125 0 0 Z " fill="#272727" transform="translate(186,370)"/>
<path d="M0 0 C3.60964568 3.60964568 5.698339 5.76009816 8 10 C8.33 6.7 8.66 3.4 9 0 C9.66 0 10.32 0 11 0 C11 5.61 11 11.22 11 17 C7.72724974 13.72724974 5.45261955 10.85411644 3 7 C2.67 9.97 2.34 12.94 2 16 C1.34 16 0.68 16 0 16 C0 10.72 0 5.44 0 0 Z " fill="#323232" transform="translate(160,370)"/>
<path d="M0 0 C0.66 0 1.32 0 2 0 C2 2.31 2 4.62 2 7 C4.31 7 6.62 7 9 7 C9 4.69 9 2.38 9 0 C9.66 0 10.32 0 11 0 C11 5.28 11 10.56 11 16 C10.34 16 9.68 16 9 16 C9 13.69 9 11.38 9 9 C6.69 9 4.38 9 2 9 C2 11.31 2 13.62 2 16 C1.34 16 0.68 16 0 16 C0 10.72 0 5.44 0 0 Z " fill="#323232" transform="translate(363,370)"/>
<path d="M0 0 C0.66 0 1.32 0 2 0 C2 2.31 2 4.62 2 7 C4.31 7 6.62 7 9 7 C9 4.69 9 2.38 9 0 C9.66 0 10.32 0 11 0 C11 5.28 11 10.56 11 16 C10.34 16 9.68 16 9 16 C9 13.69 9 11.38 9 9 C6.69 9 4.38 9 2 9 C2 11.31 2 13.62 2 16 C1.34 16 0.68 16 0 16 C0 10.72 0 5.44 0 0 Z " fill="#343434" transform="translate(296,370)"/>
<path d="M0 0 C0.33 0.99 0.66 1.98 1 3 C-1.97 2.67 -4.94 2.34 -8 2 C-6.4590864 6.21591237 -6.4590864 6.21591237 -3 7.125 C-2.01 7.41375 -1.02 7.7025 0 8 C0.66 8.66 1.32 9.32 2 10 C1.44444444 14.55555556 1.44444444 14.55555556 0 16 C-2.67058851 16.14115161 -5.32432238 16.04247107 -8 16 C-8.66 14.68 -9.32 13.36 -10 12 C-9.34 12 -8.68 12 -8 12 C-8 12.66 -8 13.32 -8 14 C-5.36 14 -2.72 14 0 14 C0 12.68 0 11.36 0 10 C-2.97 9.01 -5.94 8.02 -9 7 C-9.33 5.35 -9.66 3.7 -10 2 C-6.27511755 -0.66063032 -4.42132508 -1.38955931 0 0 Z " fill="#404040" transform="translate(285,370)"/>
<path d="M0 0 C0.66 0 1.32 0 2 0 C2.33 1.65 2.66 3.3 3 5 C4.32 3.35 5.64 1.7 7 0 C7.66 0.33 8.32 0.66 9 1 C8.29875 1.886875 7.5975 2.77375 6.875 3.6875 C4.63152584 6.77424074 4.63152584 6.77424074 5.625 9.625 C6.07875 10.40875 6.5325 11.1925 7 12 C7.556875 13.1446875 7.556875 13.1446875 8.125 14.3125 C8.41375 14.869375 8.7025 15.42625 9 16 C5.83884224 14.63016497 5.0072908 14.0109362 3 11 C2.67 12.65 2.34 14.3 2 16 C1.34 16 0.68 16 0 16 C0 10.72 0 5.44 0 0 Z " fill="#2F2F2F" transform="translate(236,370)"/>
<path d="M0 0 C0.66 0 1.32 0 2 0 C2.67354499 1.43429001 3.33859701 2.87257057 4 4.3125 C4.556875 5.51326172 4.556875 5.51326172 5.125 6.73828125 C6 9 6 9 6 12 C6.66 12 7.32 12 8 12 C8.1546875 10.9790625 8.1546875 10.9790625 8.3125 9.9375 C9.14725019 6.37084011 10.49472754 3.33777806 12 0 C12.66 0 13.32 0 14 0 C12.25192871 5.46737191 10.34205919 10.75824848 8 16 C7.34 16 6.68 16 6 16 C4.9955866 13.7101766 3.99632388 11.4183401 3 9.125 C2.71382813 8.47402344 2.42765625 7.82304687 2.1328125 7.15234375 C0 2.2265625 0 2.2265625 0 0 Z " fill="#2F2F2F" transform="translate(125,370)"/>
<path d="M0 0 C3.36591866 1.44253657 5.51047079 3.33264727 8 6 C8.66 4.35 9.32 2.7 10 1 C10.99 1 11.98 1 13 1 C11.7934375 2.485 11.7934375 2.485 10.5625 4 C7.67317108 7.99119164 7.25616233 11.13291572 7 16 C6.67 16 6.34 16 6 16 C5.9071875 14.2365625 5.9071875 14.2365625 5.8125 12.4375 C5.23381393 7.50990045 3.04822056 4.82981558 0 1 C0 0.67 0 0.34 0 0 Z " fill="#181818" transform="translate(201,370)"/>
<path d="M0 0 C-1.44424635 3.23861303 -3.25772247 5.61969163 -5.625 8.25 C-6.25664062 8.95640625 -6.88828125 9.6628125 -7.5390625 10.390625 C-8.02117187 10.92171875 -8.50328125 11.4528125 -9 12 C-9.33 11.01 -9.66 10.02 -10 9 C-4.75 0 -4.75 0 0 0 Z " fill="#101010" transform="translate(293,177)"/>
<path d="M0 0 C2.44786227 2.44786227 3.30080644 4.74317342 4.625 7.9375 C5.07101562 8.99839844 5.51703125 10.05929687 5.9765625 11.15234375 C7 14 7 14 7 17 C6.34 17 5.68 17 5 17 C3.68 13.37 2.36 9.74 1 6 C0.01 6.66 -0.98 7.32 -2 8 C-1.125 2.25 -1.125 2.25 0 0 Z " fill="#353535" transform="translate(347,369)"/>
<path d="M0 0 C0.66 0 1.32 0 2 0 C2.99 2.97 3.98 5.94 5 9 C5.66 8.67 6.32 8.34 7 8 C6.34 10.64 5.68 13.28 5 16 C4.34 16 3.68 16 3 16 C2.01 10.72 1.02 5.44 0 0 Z " fill="#252525" transform="translate(315,370)"/>
<path d="M0 0 C0.33 1.32 0.66 2.64 1 4 C-0.9375 6.25 -0.9375 6.25 -3 8 C-3.99 7.67 -4.98 7.34 -6 7 C-4.02 4.69 -2.04 2.38 0 0 Z " fill="#090909" transform="translate(309,156)"/>
<path d="M0 0 C2.35953094 2.35953094 2.49141413 3.77895617 3 7 C1.35 7 -0.3 7 -2 7 C-1.34 4.69 -0.68 2.38 0 0 Z " fill="#E5E5E5" transform="translate(347,373)"/>
<path d="M0 0 C0.66 0.66 1.32 1.32 2 2 C1.875 4 1.875 4 1 6 C-1.0625 7.25 -1.0625 7.25 -3 8 C-1.125 1.125 -1.125 1.125 0 0 Z " fill="#383838" transform="translate(324,370)"/>
<path d="M0 0 C3 3.75 3 3.75 3 6 C1.35 6 -0.3 6 -2 6 C-1.125 1.125 -1.125 1.125 0 0 Z " fill="#E8E8E8" transform="translate(186,374)"/>
<path d="M0 0 C2.475 0.495 2.475 0.495 5 1 C5.33 1.99 5.66 2.98 6 4 C4.02 4 2.04 4 0 4 C0 2.68 0 1.36 0 0 Z " fill="#424242" transform="translate(197,314)"/>
<path d="M0 0 C1.32 1.32 2.64 2.64 4 4 C2.68 5.32 1.36 6.64 0 8 C0 5.36 0 2.72 0 0 Z " fill="#F2F2F2" transform="translate(162,376)"/>
<path d="M0 0 C0.99 0.33 1.98 0.66 3 1 C2.67 3.64 2.34 6.28 2 9 C0.4375 7.3125 0.4375 7.3125 -1 5 C-0.6875 2.25 -0.6875 2.25 0 0 Z " fill="#262626" transform="translate(280,143)"/>
<path d="M0 0 C2.35953094 2.35953094 2.49141413 3.77895617 3 7 C2.34 7 1.68 7 1 7 C0.67 6.01 0.34 5.02 0 4 C-2.31 3.67 -4.62 3.34 -7 3 C-7 2.67 -7 2.34 -7 2 C-4.69 2 -2.38 2 0 2 C0 1.34 0 0.68 0 0 Z " fill="#444444" transform="translate(190,379)"/>
<path d="M0 0 C2.5654594 2.5654594 2.54046087 4.47686668 3 8 C2.01 7.34 1.02 6.68 0 6 C-0.66 6.66 -1.32 7.32 -2 8 C-1.125 2.25 -1.125 2.25 0 0 Z " fill="#282828" transform="translate(347,369)"/>
<path d="M0 0 C2.15377564 2.62198774 3.40072174 4.64404172 4 8 C3.34 8 2.68 8 2 8 C0.61767557 6.37373596 -0.71937515 4.7074998 -2 3 C-1.34 2.01 -0.68 1.02 0 0 Z " fill="#333333" transform="translate(186,370)"/>
<path d="M0 0 C3.82946843 1.45255699 5.12050295 3.42895561 7 7 C6.01 7 5.02 7 4 7 C2.02 3.535 2.02 3.535 0 0 Z " fill="#323232" transform="translate(201,370)"/>
<path d="M0 0 C0.66 0.33 1.32 0.66 2 1 C2 2.32 2 3.64 2 5 C0.02 5.99 0.02 5.99 -2 7 C-1.125 1.125 -1.125 1.125 0 0 Z " fill="#0E0E0E" transform="translate(251,228)"/>
</svg>
